<svg xmlns="http://www.w3.org/2000/svg" viewBox="0 0 711.79 695.57"><defs><style>.cls-1{fill:#fff;}</style></defs><g id="图层_2" data-name="图层 2"><g id="图层_1-2" data-name="图层 1"><g id="图层_2-2" data-name="图层 2"><g id="图层_1-2-2" data-name="图层 1-2"><path class="cls-1" d="M711.79,347.87C620,359.14,540.41,396,474.32,460.57S369.47,604,356.77,695.57c-2.34-.25-1.78-1.93-1.94-3.06q-17.11-121.75-99.06-213.4A341.24,341.24,0,0,0,222,445.82c-4.06-3.45-3.21-5.31.1-8.47a318.73,318.73,0,0,1,94.52-62.57,348,348,0,0,1,97.61-26.21,17.09,17.09,0,0,0,2.09-.7c-11.29-2-21.89-3.48-32.33-5.69-58.74-12.44-111.19-37.46-155.7-78.25-2.46-2.25-4.84-4.58-7.38-6.74s-2.6-4,.16-6.35a387.89,387.89,0,0,0,42.12-42.62q68.81-81.3,88.6-185.95C353.12,15,354.2,7.57,356.07,0c13.37,91.49,52,170.33,118,235S619.82,336.59,711.79,347.87Z"/><path class="cls-1" d="M313.11,348c-87.06,15.65-139.06,66.45-156.73,153.26C139,414.54,86.85,363.75,0,348.05c86.79-15.62,138.8-66.48,156.38-153.18C173.93,281.45,226,332.5,313.11,348Z"/><path class="cls-1" d="M603.59,174.31c-39.26,7.9-63,31.18-71.5,70.6-8.51-39.21-32.2-62.76-71.77-70.58,39.31-7.92,63.28-31.18,71.74-70.52C540.53,143.09,564.36,166.3,603.59,174.31Z"/></g></g></g></g></svg>