<svg xmlns="http://www.w3.org/2000/svg" viewBox="0 0 1076.25 1050"><g id="图层_2" data-name="图层 2"><g id="图层_1-2" data-name="图层 1"><path d="M523,0c11.5,19.71,23.06,39.39,34.5,59.14q64,110.52,127.91,221.09c.65,1.12,1.24,2.29,1.83,3.39-1.46,1.35-2.38.14-3.29-.32-34.37-17.44-70.65-29.17-109-32.6C522.2,246,469.5,246.07,417.92,261.21a339.16,339.16,0,0,0-54.35,21.35,9.13,9.13,0,0,1-5,1.18q26.51-46.05,53.05-92.19c-2-1-2.79.47-3.71,1.19-11.82,9.22-23.59,18.52-35.42,27.74-4.47,3.49-4.72,3.4-6.6-2.07a69.12,69.12,0,0,0-10.55-20.32c-2.49-3.2-2.35-4.8,1.67-6.49,21.8-9.19,43.47-18.69,65.25-27.9a21.43,21.43,0,0,0,11-9.46Q477.5,77,522,0Z" transform="translate(0)"/><path d="M622,1050c-.91-4.09.77-6.87,4-9.4q81.81-64.11,163.51-128.38a15.27,15.27,0,0,1,10-3.59q71.48.14,143,0c1.64,0,3.27.15,5,.23-.26,2.33-2.07,2.35-3.3,2.88Q855.59,949.84,767,987.83q-68.66,29.48-137.23,59.1c-2,.85-3.79,2-5.68,3.07Z" transform="translate(0)"/><path d="M842.39,599.19C843.16,775,698.58,918.71,522.72,918.54c-175.7-.16-319.46-144-319.23-320,.23-175.67,144.11-319.4,320.11-319.1C699.05,279.76,843.35,423.35,842.39,599.19ZM614.92,804.63c63.8-1,114.49-50.28,114.5-114.64,0-63.67-49.85-114.12-114-114.39-63.1-.27-114.52,49-114.73,114.16C500.46,753.72,550.68,803.47,614.92,804.63Z" transform="translate(0)"/><path d="M874.7,608.17c1.89,1.51,2.71,3.72,3.84,5.66q78.53,135.63,157,271.3c1.53,2.65,5,5.58,3.48,8.27-1.32,2.36-5.55.9-8.47.91-34.17.08-68.34-.3-102.5.17-66.49.93-133,.25-199.47.57-1.34,0-2.68.08-4,0s-3.54.69-4.12-.83c-.78-2,1.65-2.52,2.85-3.43,43-32.63,80.67-70.21,107.94-117.28A310.82,310.82,0,0,0,870.93,654.9c1.75-14.07,2.21-28.2,2.78-42.34C873.76,611.16,873.16,609.58,874.7,608.17Z" transform="translate(0)"/><path d="M172,609.63c.39,6.94.8,13.37,1.09,19.8q5.18,111.71,78.93,195.74c21.78,24.81,45.27,48,72.6,66.89a25.07,25.07,0,0,1,2.38,2.22c-1.81,1.46-3.68,1-5.38,1q-154.19.09-308.36.11c-6.89,0-7-.12-3.62-6q59.6-103.49,119.22-207,19.69-34.21,39.43-68.4C169.14,612.58,169.61,610.88,172,609.63Z" transform="translate(0)"/><path d="M195.38,459.91c-1-.48-2-1-3-1.52q-42-24.22-84-48.48Q56.88,380.14,5.41,350.31c-1-.59-2.06-1.11-3.07-1.68-2.9-1.62-3.39-3.11.16-4.58s7.32-3.21,11-4.79q84.27-36.19,168.56-72.35c5.33-2.28,6.49-3.82,7.7,4.24,3.65,24.21,18.62,41.09,36.93,55.63,5.11,4.07,5.24,4,.24,8-2.46,2-4.92,4-7.52,5.8-3.26,2.25-2.82,3.74.4,5.7,10.55,6.39,20.9,13.1,31.45,19.47,3.53,2.13,3.68,3.76.93,6.84a311.26,311.26,0,0,0-53.08,83C198.36,457.33,198.12,459.65,195.38,459.91Z" transform="translate(0)"/><path d="M279.43,320.35c-36.66,3.09-70.66-32.92-70.39-70,.26-36.12,32.49-70.5,71-70.1,36.43.38,70,32.73,69.74,71C349.57,287.54,317,323,279.43,320.35Z" transform="translate(0)"/><path d="M1016.42,818.71c6.84,2.8,12.45,6.67,18.32,10q19.3,11,38.52,22.24c1.23.71,3.14,1.11,3,3s-2.12,1.89-3.42,2.46c-8.09,3.53-16.23,7-24.32,10.5-2.34,1-4.27,1.53-5.89-1.3-8.58-15-17.27-30-25.91-45.05A8.16,8.16,0,0,1,1016.42,818.71Z" transform="translate(0)"/></g></g></svg>